<svg xmlns="http://www.w3.org/2000/svg" viewBox="0 0 900 600" width="24" height="16" style="border-radius: 2px; box-shadow: 0 0 1px rgba(0,0,0,0.3);">
  <rect width="900" height="200" fill="#FF9933"/>
  <rect y="200" width="900" height="200" fill="#FFFFFF"/>
  <rect y="400" width="900" height="200" fill="#138808"/>
  <g transform="translate(450,300)">
    <circle r="92" fill="none" stroke="#000080" stroke-width="12"/>
    <circle r="16" fill="#000080"/>
    <g id="spokes">
      <path d="M 0,-92 L 0,92 M -92,0 L 92,0" stroke="#000080" stroke-width="4"/>
      <path d="M 0,-92 L 0,92 M -92,0 L 92,0" stroke="#000080" stroke-width="4" transform="rotate(15)"/>
      <path d="M 0,-92 L 0,92 M -92,0 L 92,0" stroke="#000080" stroke-width="4" transform="rotate(30)"/>
      <path d="M 0,-92 L 0,92 M -92,0 L 92,0" stroke="#000080" stroke-width="4" transform="rotate(45)"/>
      <path d="M 0,-92 L 0,92 M -92,0 L 92,0" stroke="#000080" stroke-width="4" transform="rotate(60)"/>
      <path d="M 0,-92 L 0,92 M -92,0 L 92,0" stroke="#000080" stroke-width="4" transform="rotate(75)"/>
    </g>
  </g>
</svg>
