<svg preserveAspectRatio="none" overflow="visible" style="display: block;" width="40" height="36.0108" viewBox="0 0 40 36.0108" fill="none" xmlns="http://www.w3.org/2000/svg">
<g id="Margin">
<path id="Symbol" d="M23.3906 7.29207C23.7969 7.60457 24 8.01082 24 8.51082V11.8858V24.2608C23.9688 25.3233 23.5312 26.2139 22.6875 26.9327C21.8438 27.6202 20.7812 27.9796 19.5 28.0108C18.2188 27.9796 17.1562 27.6202 16.3125 26.9327C15.4688 26.2139 15.0312 25.3233 15 24.2608C15.0312 23.1983 15.4688 22.3077 16.3125 21.5889C17.1562 20.9014 18.2188 20.5421 19.5 20.5108C20.0312 20.5108 20.5312 20.5889 21 20.7452V13.9014L9 17.5108V27.2608C8.96875 28.3233 8.53125 29.2139 7.6875 29.9327C6.84375 30.6202 5.78125 30.9796 4.5 31.0108C3.21875 30.9796 2.15625 30.6202 1.3125 29.9327C0.46875 29.2139 0.03125 28.3233 0 27.2608C0.03125 26.1983 0.46875 25.3077 1.3125 24.5889C2.15625 23.9014 3.21875 23.5421 4.5 23.5108C5.03125 23.5108 5.53125 23.5889 6 23.7452V16.3858V13.0108C6.03125 12.2921 6.39062 11.8077 7.07812 11.5577L22.0781 7.05769C22.5469 6.93269 22.9844 7.01082 23.3906 7.29207V7.29207V7.29207" fill="#D4AF37"/>
</g>
</svg>
