<svg preserveAspectRatio="none" overflow="visible" style="display: block;" width="25" height="20" viewBox="0 0 25 20" fill="none" xmlns="http://www.w3.org/2000/svg">
<g id="Container">
<path id="Symbol" d="M5.625 6.25C6.79688 6.22396 7.69531 5.70312 8.32031 4.6875C8.89323 3.64583 8.89323 2.60417 8.32031 1.5625C7.69531 0.546875 6.79688 0.0260417 5.625 0C4.45312 0.0260417 3.55469 0.546875 2.92969 1.5625C2.35677 2.60417 2.35677 3.64583 2.92969 4.6875C3.55469 5.70312 4.45312 6.22396 5.625 6.25V6.25V6.25M20 6.25C21.1719 6.22396 22.0703 5.70312 22.6953 4.6875C23.2682 3.64583 23.2682 2.60417 22.6953 1.5625C22.0703 0.546875 21.1719 0.0260417 20 0C18.8281 0.0260417 17.9297 0.546875 17.3047 1.5625C16.7318 2.60417 16.7318 3.64583 17.3047 4.6875C17.9297 5.70312 18.8281 6.22396 20 6.25V6.25V6.25M0 11.6797C0.0520833 12.1745 0.325521 12.4479 0.820312 12.5H9.17969V12.5V12.5C8.11198 11.5365 7.55208 10.2865 7.5 8.75C7.5 8.46354 7.52604 8.17708 7.57812 7.89062C7.03125 7.63021 6.44531 7.5 5.82031 7.5H4.17969C2.98177 7.52604 1.99219 7.92969 1.21094 8.71094C0.429688 9.49219 0.0260417 10.4818 0 11.6797V11.6797V11.6797M12.5 12.5C13.4635 12.474 14.2839 12.1745 14.9609 11.6016C15.0391 11.4453 15.1432 11.3021 15.2734 11.1719C15.3776 11.0417 15.4948 10.9375 15.625 10.8594C16.0417 10.2344 16.25 9.53125 16.25 8.75C16.224 7.68229 15.8594 6.79688 15.1562 6.09375C14.4531 5.39062 13.5677 5.02604 12.5 5C11.4323 5.02604 10.5469 5.39062 9.84375 6.09375C9.14062 6.79688 8.77604 7.68229 8.75 8.75C8.77604 9.81771 9.14062 10.7031 9.84375 11.4062C10.5469 12.1094 11.4323 12.474 12.5 12.5V12.5V12.5M15.0391 14.8438C14.6224 14.6094 14.362 14.2448 14.2578 13.75H10.1953C8.73698 13.776 7.51302 14.2839 6.52344 15.2734C5.53385 16.263 5.02604 17.487 5 18.9453C5.05208 19.5964 5.40365 19.9479 6.05469 20H17.7734C17.6953 19.7917 17.6562 19.5833 17.6562 19.375V19.2578C17.6042 19.2318 17.5521 19.1927 17.5 19.1406L17.3828 19.2188C17.0443 19.401 16.6797 19.4661 16.2891 19.4141C15.8984 19.362 15.5599 19.1667 15.2734 18.8281C15.0911 18.6198 14.9219 18.3984 14.7656 18.1641V18.125V18.125L14.6875 17.9688V17.9688H14.6484C14.5182 17.7083 14.401 17.4479 14.2969 17.1875C14.1667 16.7708 14.1797 16.3802 14.3359 16.0156C14.4922 15.651 14.7266 15.3646 15.0391 15.1562L15.1562 15.0781C15.1562 15.0521 15.1562 15.026 15.1562 15C15.1562 14.974 15.1562 14.9479 15.1562 14.9219L15.0391 14.8438V14.8438V14.8438M20.8203 7.5H19.1797C18.5547 7.5 17.9688 7.63021 17.4219 7.89062C17.474 8.17708 17.5 8.46354 17.5 8.75C17.5 9.42708 17.3698 10.0651 17.1094 10.6641C17.2135 10.6901 17.3047 10.7292 17.3828 10.7812L17.5 10.8594C17.5521 10.8333 17.6042 10.8073 17.6562 10.7812V10.6641C17.6562 10.2474 17.7734 9.88281 18.0078 9.57031C18.2682 9.25781 18.6198 9.0625 19.0625 8.98438C19.375 8.93229 19.6875 8.90625 20 8.90625C20.3125 8.90625 20.625 8.93229 20.9375 8.98438C21.3802 9.0625 21.7318 9.25781 21.9922 9.57031C22.2266 9.88281 22.3438 10.2474 22.3438 10.6641V10.7812C22.3958 10.8073 22.4479 10.8333 22.5 10.8594L22.6172 10.7812C22.9557 10.599 23.3203 10.5339 23.7109 10.5859C24.1016 10.638 24.4401 10.8333 24.7266 11.1719C24.8307 11.276 24.9219 11.3932 25 11.5234C24.9219 10.3776 24.4922 9.42708 23.7109 8.67188C22.9557 7.91667 21.9922 7.52604 20.8203 7.5V7.5V7.5M24.4141 13.9062C24.6745 13.724 24.7526 13.4896 24.6484 13.2031C24.5703 12.9948 24.4792 12.7865 24.375 12.5781L24.2969 12.4219C24.1667 12.2135 24.0234 12.0312 23.8672 11.875C23.6589 11.6406 23.4115 11.6016 23.125 11.7578L22.4219 12.1484C22.0833 11.8359 21.6927 11.6016 21.25 11.4453V10.625C21.224 10.3125 21.0677 10.1302 20.7812 10.0781C20.5208 10.026 20.2604 10 20 10C19.7396 10 19.4792 10.026 19.2188 10.0781C18.9323 10.1302 18.776 10.3125 18.75 10.625V11.4453C18.3073 11.6016 17.9167 11.8359 17.5781 12.1484L16.8359 11.7578C16.5755 11.6016 16.3281 11.6406 16.0938 11.875C15.9635 12.0312 15.8333 12.2135 15.7031 12.4219L15.625 12.5781C15.5208 12.7865 15.4297 12.9948 15.3516 13.2031C15.2474 13.4896 15.3255 13.724 15.5859 13.9062L16.3281 14.2969C16.276 14.5312 16.25 14.7656 16.25 15C16.25 15.2344 16.276 15.4557 16.3281 15.6641L15.5859 16.0938C15.3255 16.25 15.2474 16.4844 15.3516 16.7969C15.4297 17.0052 15.5208 17.2135 15.625 17.4219L15.7031 17.5781C15.8333 17.7604 15.9635 17.9427 16.0938 18.125C16.3281 18.3594 16.5755 18.3984 16.8359 18.2422L17.5781 17.8516C17.9167 18.1641 18.3073 18.3984 18.75 18.5547V19.375C18.776 19.6875 18.9323 19.8828 19.2188 19.9609C19.4792 19.987 19.7396 20 20 20C20.2604 20 20.5208 19.987 20.7812 19.9609C21.0677 19.8828 21.224 19.6875 21.25 19.375V18.5547C21.6927 18.3984 22.0833 18.1641 22.4219 17.8516L23.1641 18.2812C23.4245 18.4115 23.6719 18.3724 23.9062 18.1641C24.0365 17.9818 24.1667 17.7865 24.2969 17.5781L24.375 17.4219C24.4792 17.2135 24.5833 17.0052 24.6875 16.7969C24.7656 16.5104 24.6745 16.276 24.4141 16.0938L23.7109 15.7031C23.737 15.4688 23.75 15.2344 23.75 15C23.75 14.7656 23.737 14.5443 23.7109 14.3359L24.4141 13.9062V13.9062V13.9062M18.4375 15C18.4635 14.401 18.724 13.9453 19.2188 13.6328C19.7396 13.3724 20.2604 13.3724 20.7812 13.6328C21.276 13.9453 21.5365 14.401 21.5625 15C21.5365 15.599 21.276 16.0547 20.7812 16.3672C20.2604 16.6276 19.7396 16.6276 19.2188 16.3672C18.724 16.0547 18.4635 15.599 18.4375 15V15V15" fill="#C10F3A"/>
</g>
</svg>
